<svg width="80" height="80" viewBox="0 0 80 80" fill="none" xmlns="http://www.w3.org/2000/svg">
<mask id="path-1-outside-1_762_84" maskUnits="userSpaceOnUse" x="4" y="12" width="73" height="56" fill="black">
<rect fill="white" x="4" y="12" width="73" height="56"/>
<path d="M73.0523 56.6113C72.5671 56.1134 72.0065 55.7286 71.3708 55.4594C70.7328 55.1903 70.07 55.0563 69.3819 55.0563H69.3731C69.0332 55.0563 68.694 55.0896 68.3596 55.1571C68.0256 55.2251 67.7004 55.3258 67.3842 55.4576C67.0698 55.5896 66.7699 55.7524 66.4859 55.9466C66.2022 56.139 65.9397 56.3569 65.699 56.6022C65.4564 56.8477 65.241 57.1152 65.0507 57.4045C64.8618 57.6918 64.7022 57.9978 64.5708 58.3181C64.4397 58.6386 64.3408 58.9701 64.2745 59.3107C64.2078 59.6497 64.1739 59.9939 64.1739 60.3419C64.1739 60.6879 64.2064 61.0322 64.2726 61.373C64.3389 61.7135 64.4378 62.045 64.5689 62.3655C64.6985 62.6861 64.8585 62.9919 65.0488 63.2812C65.2373 63.5687 65.4528 63.8362 65.6938 64.0816C65.9345 64.3289 66.1967 64.5466 66.4806 64.7408C66.7643 64.9331 67.0643 65.0962 67.3786 65.2298C67.6949 65.3634 68.0185 65.4642 68.3544 65.5319C68.6884 65.5998 69.0261 65.6326 69.3675 65.6326H69.3745C69.8885 65.6326 70.3914 65.5576 70.882 65.4056C71.3741 65.2553 71.8322 65.0338 72.2598 64.7426C72.6875 64.4533 73.0649 64.1053 73.3899 63.7025C73.7169 63.2977 73.9773 62.8545 74.175 62.3729C74.3709 61.8894 74.4945 61.3876 74.5449 60.8675C74.5971 60.3473 74.5719 59.8309 74.473 59.3181C74.3727 58.8054 74.2021 58.3181 73.9609 57.8585C73.7188 57.3971 73.4169 56.9814 73.0537 56.6113H73.0523ZM71.1208 60.4224C71.1119 60.6531 71.0597 60.8711 70.9664 61.0799C70.8745 61.2887 70.7453 61.4737 70.5835 61.6312C70.4202 61.7904 70.2336 61.9131 70.0252 61.9992C69.8166 62.0836 69.5993 62.1275 69.3731 62.1275H69.3712C69.1412 62.1238 68.9183 62.0762 68.7061 61.9846C68.4944 61.8931 68.3076 61.7648 68.1459 61.5982C67.9841 61.4296 67.8604 61.2393 67.7723 61.0213C67.686 60.8052 67.6411 60.58 67.6411 60.3456C67.6427 60.1111 67.686 59.8858 67.7742 59.6679C67.8619 59.4518 67.986 59.2594 68.1478 59.0928C68.3092 58.9262 68.498 58.798 68.7099 58.7065C68.9221 58.6149 69.1431 58.5673 69.3731 58.5655H69.3745C69.6063 58.5655 69.831 58.6112 70.0447 58.7028C70.2585 58.7924 70.4472 58.9207 70.6124 59.0893C70.7757 59.2559 70.9016 59.4482 70.9898 59.6661C71.0793 59.8858 71.1227 60.1129 71.1227 60.3492C71.1227 60.373 71.1227 60.3969 71.1208 60.4224ZM34.2065 55.0563H34.1996C33.5115 55.0548 32.8483 55.1884 32.2126 55.4557C31.5768 55.725 31.0144 56.1078 30.5292 56.6041C30.2508 56.886 30.0064 57.1957 29.7965 57.5326C29.5502 57.9319 29.3599 58.3585 29.2251 58.8109C29.0903 59.2632 29.0166 59.7248 29.004 60.1972C28.9914 60.6679 29.04 61.1349 29.1478 61.5927C29.2572 62.0525 29.4243 62.4882 29.6491 62.9022C29.8734 63.3142 30.1468 63.6914 30.4699 64.0303C30.7932 64.3691 31.1543 64.6584 31.5549 64.8983C31.9537 65.1382 32.3778 65.3214 32.825 65.446C33.2653 65.5685 33.7145 65.6325 34.1707 65.6346H34.2151C34.5421 65.6337 34.8657 65.6024 35.1856 65.5393C35.5127 65.4752 35.8289 65.3799 36.138 65.2537C36.4451 65.1273 36.738 64.9734 37.0164 64.7902C37.2967 64.6071 37.5555 64.4002 37.7943 64.1658C38.035 63.9332 38.2505 63.6786 38.4428 63.4021C38.6334 63.1274 38.7986 62.8344 38.9353 62.5267C39.0715 62.2191 39.1793 61.9022 39.2567 61.5725C39.3336 61.2447 39.3787 60.9113 39.3932 60.5746C39.397 60.5013 39.3984 60.4262 39.3984 60.3528C39.3984 60.0049 39.3662 59.6606 39.2996 59.3199C39.2332 58.9794 39.1363 58.6479 39.0051 58.3274C38.8755 58.007 38.716 57.701 38.5253 57.4136C38.3369 57.1241 38.1214 56.8568 37.8807 56.6095C37.6395 56.3642 37.3774 56.1443 37.0938 55.952C36.8116 55.758 36.5116 55.5949 36.1973 55.4613C35.8811 55.3277 35.5559 55.2269 35.2215 55.159C34.8875 55.0914 34.5499 55.0563 34.2084 55.0563H34.2065ZM35.9492 60.4224C35.9385 60.6515 35.8866 60.8711 35.7947 61.0799C35.7014 61.2887 35.5737 61.4737 35.4104 61.6312C35.2486 61.7904 35.0615 61.9131 34.8535 61.9975C34.6432 62.0836 34.4258 62.1275 34.2015 62.1275H34.1977C33.8797 62.1256 33.5834 62.0433 33.3102 61.8783C33.0372 61.7135 32.8232 61.4901 32.6688 61.2062C32.5144 60.9224 32.4426 60.6183 32.4514 60.2942C32.4603 59.9719 32.5504 59.6715 32.7192 59.3988C32.7892 59.2851 32.8718 59.1808 32.9654 59.0856C33.305 58.7376 33.7182 58.5636 34.2015 58.5655H34.2029C34.4347 58.5655 34.6594 58.6112 34.8731 58.7009C35.0869 58.7908 35.2756 58.9207 35.4389 59.0873C35.6044 59.2541 35.7299 59.4482 35.8182 59.6661C35.9063 59.884 35.9511 60.1111 35.9511 60.3473C35.9511 60.373 35.9492 60.3969 35.9492 60.4224ZM37.6866 41.2462L24.396 41.2315C23.6847 41.2315 23.108 40.7132 23.108 40.0778L23.1206 31.5272C23.1206 30.8915 23.6991 30.377 24.4122 30.377L37.701 30.3937C38.4143 30.3937 38.9889 30.9101 38.9889 31.5453L38.9763 40.096C38.9763 40.7316 38.3979 41.2462 37.6866 41.2462ZM63.538 58.2157C63.5091 58.2523 63.4788 58.2871 63.448 58.3237C61.5851 59.9134 60.1391 60.5746 58.0515 60.5964C58.0211 60.6037 57.9884 60.6074 57.9563 60.6093C56.0033 60.6057 42.3807 60.5818 42.3807 60.5763H40.392C40.3956 60.503 40.3975 60.4298 40.3975 60.3547C40.4027 56.8733 37.6307 54.0458 34.2084 54.0421C31.7778 54.0382 29.6724 55.4594 28.6555 57.5326L26.031 57.5289C25.9769 57.5289 25.9246 57.5162 25.8747 57.4922C25.8261 57.4702 25.7848 57.4354 25.7487 57.3932C25.7148 57.3512 25.6896 57.3018 25.677 57.2487C25.6625 57.1957 25.6607 57.1407 25.6714 57.0857C25.8081 56.3531 26.1854 54.8038 27.1323 53.1572L26.6742 52.4211C26.518 52.1719 26.4442 51.8975 26.4549 51.6008C26.4658 51.3042 26.5572 51.0368 26.7297 50.7987L28.1238 48.874C28.2567 48.6889 28.4238 48.5459 28.6234 48.4433C28.8245 48.341 29.0362 48.2877 29.261 48.2896L30.3819 48.2916C31.8264 46.7824 33.3534 45.7952 34.6432 45.2185L35.2523 44.9768V44.3211C35.2523 44.2513 35.2272 44.1909 35.1786 44.1415C35.1301 44.0921 35.0727 44.0682 35.0027 44.0682H26.2394C26.171 44.0682 26.1135 44.0425 26.0651 43.9931C26.0165 43.9436 25.9913 43.8852 25.9913 43.8158V42.8505C25.9913 42.7811 26.0165 42.7206 26.0651 42.6712C26.1135 42.6217 26.171 42.5979 26.2394 42.5979H36.4487C36.5168 42.5979 36.5747 42.6217 36.6231 42.6712C36.6716 42.7206 36.6967 42.7811 36.6967 42.8505V44.5846C36.8349 44.5664 36.9735 44.5555 37.1133 44.5555H37.3074C37.4655 44.246 37.6452 43.9513 37.8446 43.6674C38.6638 42.704 40.8611 43.277 43.5342 43.8942C46.2055 44.5132 49.7411 44.0791 50.8833 44.1671C52.026 44.2569 51.18 46.6687 50.5638 46.6687L49.7247 46.6672C48.8301 47.6286 47.63 48.3519 47.3352 49.9508C47.0371 51.5805 47.339 53.4815 47.5904 54.6169C47.6212 54.7618 47.6751 54.8975 47.7522 55.0219C47.8277 55.148 47.921 55.2578 48.0343 55.3515C48.1454 55.4448 48.2695 55.5179 48.4062 55.5693C48.5427 55.6206 48.6827 55.6462 48.8282 55.6499C49.0511 55.6555 49.3063 55.6591 49.5847 55.6647L50.1147 54.3882L51.7728 55.1571L51.5624 55.6736C53.5998 55.6627 55.91 55.5803 56.9288 55.2854C58.3765 54.868 59.7077 53.6593 60.6419 51.4872C60.6438 51.4835 60.6457 51.4782 60.6476 51.4743C60.6941 51.3645 60.7409 51.2509 60.7857 51.1358C62.5427 46.537 60.1605 39.3543 59.1438 36.6787C58.892 36.0158 58.7235 35.6293 58.7235 35.6293C58.4629 35.1238 57.9884 34.1971 57.7226 33.626C57.6634 33.617 57.6079 33.6018 57.5519 33.5818C57.2198 33.461 56.4614 33.2633 56.1059 33.3056L56.1652 33.8639C56.1652 33.8639 50.6319 35.4572 48.485 34.6883C48.4294 35.7063 48.3701 36.4409 48.3272 36.6183C48.3003 36.7281 48.1295 36.8489 47.8548 36.9697C50.0084 37.2554 54.3292 38.186 57.6489 41.2078C59.7544 43.1235 52.3027 54.1244 52.3027 54.1244L50.2961 53.1976C50.2961 53.1976 49.9994 49.1468 52.7841 44.7496C52.82 44.6944 52.847 44.6359 52.8684 44.5737C52.89 44.5114 52.9026 44.4476 52.91 44.3835C52.9152 44.3174 52.9133 44.2513 52.9045 44.1875C52.8955 44.1214 52.8777 44.0592 52.854 43.9988C52.8288 43.9384 52.7984 43.8799 52.7607 43.8267C52.7229 43.7734 52.68 43.7258 52.6315 43.6836C52.5812 43.6399 52.529 43.6051 52.4715 43.5756C52.4141 43.5447 52.3531 43.5228 52.2901 43.508C50.8819 43.1729 48.5265 42.8595 45.309 43.0282C41.2273 43.2404 39.7398 40.5102 40.4604 37.3766C40.3631 35.8822 40.0025 27.13 44.4377 22.3009C44.0911 22.3466 43.746 22.328 43.4028 22.2476C44.0693 22.1468 44.6406 21.504 44.6588 21.484C43.101 22.5552 41.6764 21.2386 41.6764 21.2386C42.9162 21.6452 44.0622 20.9328 44.0622 20.9328C43.5286 20.9766 43.2413 20.6105 43.2413 20.6105C44.0301 20.6139 44.6714 20.1161 45.0413 19.7423C44.948 19.592 44.8654 19.4366 44.7935 19.2735C44.698 19.0557 44.6318 18.8284 44.5977 18.5921C44.5165 18.0572 44.5777 17.3782 44.9172 16.442C45.6 14.5577 47.6803 13.5942 49.6599 14.1621C51.0396 14.5558 52.0602 15.4167 52.4141 16.5266C52.4678 16.6968 52.5074 16.8708 52.529 17.0482C52.5577 17.2884 52.5577 17.528 52.529 17.7699C52.5256 17.8889 52.513 18.0078 52.4896 18.1271C52.3405 18.0719 52.1893 18.0281 52.035 17.9952C51.8517 17.9531 51.645 17.9108 51.4276 17.8726C51.4259 17.8761 51.4243 17.8817 51.4224 17.8851C51.2322 18.2916 51.374 18.8303 51.4566 19.2735C51.9524 20.5829 50.5135 23.1321 48.5768 22.0185C48.5605 22.0113 48.5443 22.0023 48.5301 21.9914C48.0772 22.7878 47.8529 23.6284 47.7558 24.0882C47.8562 24.2619 47.9499 24.4378 48.0359 24.6103C48.4383 24.8666 48.706 25.2694 48.8408 25.78C49.096 26.7343 50.0051 31.3038 50.4594 31.5073C50.6804 31.6058 51.4798 31.659 52.4879 31.6902C53.4953 31.7212 54.7137 31.7304 55.7683 31.7469C55.7683 31.7469 57.0076 31.7047 57.4567 31.2852C57.9077 30.8678 58.4017 30.8806 58.8545 31.2672C58.9153 31.3185 58.9713 31.3732 59.0235 31.4335C59.079 31.4027 59.1363 31.3713 59.1956 31.3423C59.2441 31.298 59.2927 31.2525 59.3411 31.2048C59.363 31.1845 59.3845 31.1644 59.4059 31.1445C59.8659 30.7156 60.3169 30.399 60.7497 30.1958L61.1574 28.1646C61.0426 28.2801 60.9241 28.3352 60.8109 28.3149C60.4517 28.2525 60.2861 27.4467 60.4409 26.5146C60.5953 25.5808 61.0155 24.8757 61.3748 24.9379C61.7362 25.0002 61.9013 25.8076 61.7451 26.74C61.677 27.1503 61.5581 27.5164 61.4145 27.7928L60.9512 30.1116C61.7613 29.7984 62.4993 29.9083 63.0925 30.4869C63.0925 30.4869 64.3408 33.0104 63.087 34.8071C63.087 34.8071 61.8062 35.0469 61.4145 35.1732C61.912 36.1733 66.8165 42.7625 66.6515 49.8829C72.1251 48.8135 74.0421 52.5053 74.1442 55.0858C74.1442 55.1208 74.1316 55.1499 74.105 55.1719C74.0779 55.1937 74.049 55.2012 74.015 55.1922C73.5211 55.0695 73.0215 54.9759 72.5168 54.9118C72.2365 54.7434 71.9417 54.5969 71.6381 54.4762C71.3326 54.3535 71.0219 54.258 70.7024 54.1866C70.3824 54.1152 70.0591 54.0695 69.7323 54.0492C69.4071 54.0293 69.0802 54.0363 68.755 54.0695C68.4296 54.1024 68.1082 54.1609 67.7918 54.247C67.4757 54.3312 67.1687 54.4409 66.8684 54.575C66.5684 54.7087 66.2812 54.8661 66.0064 55.0476C65.7331 55.2269 65.4728 55.4284 65.2302 55.6517C65.2088 55.6701 65.1888 55.6884 65.1692 55.7085C64.4234 56.408 63.8809 57.2431 63.5399 58.2138L63.538 58.2157ZM23.1619 56.6865C23.1619 56.7964 23.1404 56.9025 23.099 57.0052C23.0576 57.1059 22.9985 57.1957 22.923 57.2743C22.8457 57.3512 22.7578 57.4117 22.659 57.4539C22.5583 57.496 22.4542 57.5162 22.3463 57.5162H9.97035C9.86071 57.5162 9.7583 57.496 9.65777 57.4539C9.5571 57.4117 9.46901 57.3512 9.39191 57.2743C9.31641 57.1957 9.2571 57.1059 9.21574 57.0052C9.17451 56.9025 9.15296 56.7964 9.15296 56.6865C9.15296 56.5765 9.17451 56.4703 9.21574 56.3696C9.2571 56.267 9.31641 56.1774 9.39191 56.1004C9.46901 56.0216 9.5571 55.9631 9.65589 55.9209C9.75656 55.8789 9.86071 55.8568 9.96847 55.8568H22.3463C22.4542 55.8568 22.5583 55.8789 22.659 55.9209C22.7578 55.9631 22.8457 56.0216 22.923 56.1004C22.9985 56.1774 23.0576 56.267 23.099 56.3696C23.1404 56.4703 23.1619 56.5765 23.1619 56.6865ZM23.1619 51.2785C23.1619 51.3884 23.1404 51.4929 23.099 51.5952C23.0576 51.696 22.9985 51.7874 22.923 51.8643C22.8457 51.9413 22.7578 52.0018 22.659 52.0439C22.5583 52.0863 22.4542 52.1082 22.3463 52.1082H6.8158C6.70615 52.1082 6.60187 52.0863 6.50307 52.0439C6.40255 52.0018 6.31446 51.9432 6.23895 51.8643C6.16171 51.7874 6.10255 51.6979 6.06118 51.5952C6.01982 51.4929 6 51.3884 6 51.2785C6 51.1667 6.01982 51.0622 6.06118 50.9599C6.10255 50.8572 6.16171 50.7674 6.23722 50.6903C6.31446 50.6119 6.40255 50.5529 6.50307 50.511C6.60187 50.4691 6.70615 50.4469 6.8158 50.4469H22.3463C22.4542 50.4469 22.5583 50.4691 22.659 50.511C22.7578 50.5529 22.8457 50.6119 22.923 50.6903C22.9985 50.7674 23.0576 50.8592 23.099 50.9599C23.1404 51.0622 23.1619 51.1667 23.1619 51.2785ZM23.1619 45.8685C23.1619 45.9783 23.1404 46.0848 23.099 46.1855C23.0576 46.2878 22.9985 46.3776 22.923 46.4547C22.8457 46.5336 22.7578 46.5936 22.659 46.6358C22.5583 46.6781 22.4542 46.6982 22.3463 46.6982H16.1412C16.0334 46.6982 15.9293 46.6781 15.8287 46.6358C15.7281 46.5936 15.64 46.5336 15.5645 46.4565C15.4872 46.3776 15.4281 46.2878 15.3867 46.1855C15.3453 46.0848 15.3257 45.9783 15.3257 45.8685C15.3257 45.7586 15.3453 45.6526 15.3867 45.5517C15.4281 45.4491 15.4872 45.3592 15.5627 45.2807C15.64 45.2037 15.7281 45.1433 15.8287 45.101C15.9275 45.0591 16.0317 45.0392 16.1394 45.0392H22.3463C22.4542 45.0392 22.5583 45.0591 22.659 45.101C22.7578 45.1433 22.8457 45.2037 22.923 45.2807C22.9985 45.3592 23.0576 45.4491 23.099 45.5517C23.1404 45.6526 23.1619 45.7586 23.1619 45.8685Z"/>
</mask>
<path d="M73.0523 56.6113C72.5671 56.1134 72.0065 55.7286 71.3708 55.4594C70.7328 55.1903 70.07 55.0563 69.3819 55.0563H69.3731C69.0332 55.0563 68.694 55.0896 68.3596 55.1571C68.0256 55.2251 67.7004 55.3258 67.3842 55.4576C67.0698 55.5896 66.7699 55.7524 66.4859 55.9466C66.2022 56.139 65.9397 56.3569 65.699 56.6022C65.4564 56.8477 65.241 57.1152 65.0507 57.4045C64.8618 57.6918 64.7022 57.9978 64.5708 58.3181C64.4397 58.6386 64.3408 58.9701 64.2745 59.3107C64.2078 59.6497 64.1739 59.9939 64.1739 60.3419C64.1739 60.6879 64.2064 61.0322 64.2726 61.373C64.3389 61.7135 64.4378 62.045 64.5689 62.3655C64.6985 62.6861 64.8585 62.9919 65.0488 63.2812C65.2373 63.5687 65.4528 63.8362 65.6938 64.0816C65.9345 64.3289 66.1967 64.5466 66.4806 64.7408C66.7643 64.9331 67.0643 65.0962 67.3786 65.2298C67.6949 65.3634 68.0185 65.4642 68.3544 65.5319C68.6884 65.5998 69.0261 65.6326 69.3675 65.6326H69.3745C69.8885 65.6326 70.3914 65.5576 70.882 65.4056C71.3741 65.2553 71.8322 65.0338 72.2598 64.7426C72.6875 64.4533 73.0649 64.1053 73.3899 63.7025C73.7169 63.2977 73.9773 62.8545 74.175 62.3729C74.3709 61.8894 74.4945 61.3876 74.5449 60.8675C74.5971 60.3473 74.5719 59.8309 74.473 59.3181C74.3727 58.8054 74.2021 58.3181 73.9609 57.8585C73.7188 57.3971 73.4169 56.9814 73.0537 56.6113H73.0523ZM71.1208 60.4224C71.1119 60.6531 71.0597 60.8711 70.9664 61.0799C70.8745 61.2887 70.7453 61.4737 70.5835 61.6312C70.4202 61.7904 70.2336 61.9131 70.0252 61.9992C69.8166 62.0836 69.5993 62.1275 69.3731 62.1275H69.3712C69.1412 62.1238 68.9183 62.0762 68.7061 61.9846C68.4944 61.8931 68.3076 61.7648 68.1459 61.5982C67.9841 61.4296 67.8604 61.2393 67.7723 61.0213C67.686 60.8052 67.6411 60.58 67.6411 60.3456C67.6427 60.1111 67.686 59.8858 67.7742 59.6679C67.8619 59.4518 67.986 59.2594 68.1478 59.0928C68.3092 58.9262 68.498 58.798 68.7099 58.7065C68.9221 58.6149 69.1431 58.5673 69.3731 58.5655H69.3745C69.6063 58.5655 69.831 58.6112 70.0447 58.7028C70.2585 58.7924 70.4472 58.9207 70.6124 59.0893C70.7757 59.2559 70.9016 59.4482 70.9898 59.6661C71.0793 59.8858 71.1227 60.1129 71.1227 60.3492C71.1227 60.373 71.1227 60.3969 71.1208 60.4224ZM34.2065 55.0563H34.1996C33.5115 55.0548 32.8483 55.1884 32.2126 55.4557C31.5768 55.725 31.0144 56.1078 30.5292 56.6041C30.2508 56.886 30.0064 57.1957 29.7965 57.5326C29.5502 57.9319 29.3599 58.3585 29.2251 58.8109C29.0903 59.2632 29.0166 59.7248 29.004 60.1972C28.9914 60.6679 29.04 61.1349 29.1478 61.5927C29.2572 62.0525 29.4243 62.4882 29.6491 62.9022C29.8734 63.3142 30.1468 63.6914 30.4699 64.0303C30.7932 64.3691 31.1543 64.6584 31.5549 64.8983C31.9537 65.1382 32.3778 65.3214 32.825 65.446C33.2653 65.5685 33.7145 65.6325 34.1707 65.6346H34.2151C34.5421 65.6337 34.8657 65.6024 35.1856 65.5393C35.5127 65.4752 35.8289 65.3799 36.138 65.2537C36.4451 65.1273 36.738 64.9734 37.0164 64.7902C37.2967 64.6071 37.5555 64.4002 37.7943 64.1658C38.035 63.9332 38.2505 63.6786 38.4428 63.4021C38.6334 63.1274 38.7986 62.8344 38.9353 62.5267C39.0715 62.2191 39.1793 61.9022 39.2567 61.5725C39.3336 61.2447 39.3787 60.9113 39.3932 60.5746C39.397 60.5013 39.3984 60.4262 39.3984 60.3528C39.3984 60.0049 39.3662 59.6606 39.2996 59.3199C39.2332 58.9794 39.1363 58.6479 39.0051 58.3274C38.8755 58.007 38.716 57.701 38.5253 57.4136C38.3369 57.1241 38.1214 56.8568 37.8807 56.6095C37.6395 56.3642 37.3774 56.1443 37.0938 55.952C36.8116 55.758 36.5116 55.5949 36.1973 55.4613C35.8811 55.3277 35.5559 55.2269 35.2215 55.159C34.8875 55.0914 34.5499 55.0563 34.2084 55.0563H34.2065ZM35.9492 60.4224C35.9385 60.6515 35.8866 60.8711 35.7947 61.0799C35.7014 61.2887 35.5737 61.4737 35.4104 61.6312C35.2486 61.7904 35.0615 61.9131 34.8535 61.9975C34.6432 62.0836 34.4258 62.1275 34.2015 62.1275H34.1977C33.8797 62.1256 33.5834 62.0433 33.3102 61.8783C33.0372 61.7135 32.8232 61.4901 32.6688 61.2062C32.5144 60.9224 32.4426 60.6183 32.4514 60.2942C32.4603 59.9719 32.5504 59.6715 32.7192 59.3988C32.7892 59.2851 32.8718 59.1808 32.9654 59.0856C33.305 58.7376 33.7182 58.5636 34.2015 58.5655H34.2029C34.4347 58.5655 34.6594 58.6112 34.8731 58.7009C35.0869 58.7908 35.2756 58.9207 35.4389 59.0873C35.6044 59.2541 35.7299 59.4482 35.8182 59.6661C35.9063 59.884 35.9511 60.1111 35.9511 60.3473C35.9511 60.373 35.9492 60.3969 35.9492 60.4224ZM37.6866 41.2462L24.396 41.2315C23.6847 41.2315 23.108 40.7132 23.108 40.0778L23.1206 31.5272C23.1206 30.8915 23.6991 30.377 24.4122 30.377L37.701 30.3937C38.4143 30.3937 38.9889 30.9101 38.9889 31.5453L38.9763 40.096C38.9763 40.7316 38.3979 41.2462 37.6866 41.2462ZM63.538 58.2157C63.5091 58.2523 63.4788 58.2871 63.448 58.3237C61.5851 59.9134 60.1391 60.5746 58.0515 60.5964C58.0211 60.6037 57.9884 60.6074 57.9563 60.6093C56.0033 60.6057 42.3807 60.5818 42.3807 60.5763H40.392C40.3956 60.503 40.3975 60.4298 40.3975 60.3547C40.4027 56.8733 37.6307 54.0458 34.2084 54.0421C31.7778 54.0382 29.6724 55.4594 28.6555 57.5326L26.031 57.5289C25.9769 57.5289 25.9246 57.5162 25.8747 57.4922C25.8261 57.4702 25.7848 57.4354 25.7487 57.3932C25.7148 57.3512 25.6896 57.3018 25.677 57.2487C25.6625 57.1957 25.6607 57.1407 25.6714 57.0857C25.8081 56.3531 26.1854 54.8038 27.1323 53.1572L26.6742 52.4211C26.518 52.1719 26.4442 51.8975 26.4549 51.6008C26.4658 51.3042 26.5572 51.0368 26.7297 50.7987L28.1238 48.874C28.2567 48.6889 28.4238 48.5459 28.6234 48.4433C28.8245 48.341 29.0362 48.2877 29.261 48.2896L30.3819 48.2916C31.8264 46.7824 33.3534 45.7952 34.6432 45.2185L35.2523 44.9768V44.3211C35.2523 44.2513 35.2272 44.1909 35.1786 44.1415C35.1301 44.0921 35.0727 44.0682 35.0027 44.0682H26.2394C26.171 44.0682 26.1135 44.0425 26.0651 43.9931C26.0165 43.9436 25.9913 43.8852 25.9913 43.8158V42.8505C25.9913 42.7811 26.0165 42.7206 26.0651 42.6712C26.1135 42.6217 26.171 42.5979 26.2394 42.5979H36.4487C36.5168 42.5979 36.5747 42.6217 36.6231 42.6712C36.6716 42.7206 36.6967 42.7811 36.6967 42.8505V44.5846C36.8349 44.5664 36.9735 44.5555 37.1133 44.5555H37.3074C37.4655 44.246 37.6452 43.9513 37.8446 43.6674C38.6638 42.704 40.8611 43.277 43.5342 43.8942C46.2055 44.5132 49.7411 44.0791 50.8833 44.1671C52.026 44.2569 51.18 46.6687 50.5638 46.6687L49.7247 46.6672C48.8301 47.6286 47.63 48.3519 47.3352 49.9508C47.0371 51.5805 47.339 53.4815 47.5904 54.6169C47.6212 54.7618 47.6751 54.8975 47.7522 55.0219C47.8277 55.148 47.921 55.2578 48.0343 55.3515C48.1454 55.4448 48.2695 55.5179 48.4062 55.5693C48.5427 55.6206 48.6827 55.6462 48.8282 55.6499C49.0511 55.6555 49.3063 55.6591 49.5847 55.6647L50.1147 54.3882L51.7728 55.1571L51.5624 55.6736C53.5998 55.6627 55.91 55.5803 56.9288 55.2854C58.3765 54.868 59.7077 53.6593 60.6419 51.4872C60.6438 51.4835 60.6457 51.4782 60.6476 51.4743C60.6941 51.3645 60.7409 51.2509 60.7857 51.1358C62.5427 46.537 60.1605 39.3543 59.1438 36.6787C58.892 36.0158 58.7235 35.6293 58.7235 35.6293C58.4629 35.1238 57.9884 34.1971 57.7226 33.626C57.6634 33.617 57.6079 33.6018 57.5519 33.5818C57.2198 33.461 56.4614 33.2633 56.1059 33.3056L56.1652 33.8639C56.1652 33.8639 50.6319 35.4572 48.485 34.6883C48.4294 35.7063 48.3701 36.4409 48.3272 36.6183C48.3003 36.7281 48.1295 36.8489 47.8548 36.9697C50.0084 37.2554 54.3292 38.186 57.6489 41.2078C59.7544 43.1235 52.3027 54.1244 52.3027 54.1244L50.2961 53.1976C50.2961 53.1976 49.9994 49.1468 52.7841 44.7496C52.82 44.6944 52.847 44.6359 52.8684 44.5737C52.89 44.5114 52.9026 44.4476 52.91 44.3835C52.9152 44.3174 52.9133 44.2513 52.9045 44.1875C52.8955 44.1214 52.8777 44.0592 52.854 43.9988C52.8288 43.9384 52.7984 43.8799 52.7607 43.8267C52.7229 43.7734 52.68 43.7258 52.6315 43.6836C52.5812 43.6399 52.529 43.6051 52.4715 43.5756C52.4141 43.5447 52.3531 43.5228 52.2901 43.508C50.8819 43.1729 48.5265 42.8595 45.309 43.0282C41.2273 43.2404 39.7398 40.5102 40.4604 37.3766C40.3631 35.8822 40.0025 27.13 44.4377 22.3009C44.0911 22.3466 43.746 22.328 43.4028 22.2476C44.0693 22.1468 44.6406 21.504 44.6588 21.484C43.101 22.5552 41.6764 21.2386 41.6764 21.2386C42.9162 21.6452 44.0622 20.9328 44.0622 20.9328C43.5286 20.9766 43.2413 20.6105 43.2413 20.6105C44.0301 20.6139 44.6714 20.1161 45.0413 19.7423C44.948 19.592 44.8654 19.4366 44.7935 19.2735C44.698 19.0557 44.6318 18.8284 44.5977 18.5921C44.5165 18.0572 44.5777 17.3782 44.9172 16.442C45.6 14.5577 47.6803 13.5942 49.6599 14.1621C51.0396 14.5558 52.0602 15.4167 52.4141 16.5266C52.4678 16.6968 52.5074 16.8708 52.529 17.0482C52.5577 17.2884 52.5577 17.528 52.529 17.7699C52.5256 17.8889 52.513 18.0078 52.4896 18.1271C52.3405 18.0719 52.1893 18.0281 52.035 17.9952C51.8517 17.9531 51.645 17.9108 51.4276 17.8726C51.4259 17.8761 51.4243 17.8817 51.4224 17.8851C51.2322 18.2916 51.374 18.8303 51.4566 19.2735C51.9524 20.5829 50.5135 23.1321 48.5768 22.0185C48.5605 22.0113 48.5443 22.0023 48.5301 21.9914C48.0772 22.7878 47.8529 23.6284 47.7558 24.0882C47.8562 24.2619 47.9499 24.4378 48.0359 24.6103C48.4383 24.8666 48.706 25.2694 48.8408 25.78C49.096 26.7343 50.0051 31.3038 50.4594 31.5073C50.6804 31.6058 51.4798 31.659 52.4879 31.6902C53.4953 31.7212 54.7137 31.7304 55.7683 31.7469C55.7683 31.7469 57.0076 31.7047 57.4567 31.2852C57.9077 30.8678 58.4017 30.8806 58.8545 31.2672C58.9153 31.3185 58.9713 31.3732 59.0235 31.4335C59.079 31.4027 59.1363 31.3713 59.1956 31.3423C59.2441 31.298 59.2927 31.2525 59.3411 31.2048C59.363 31.1845 59.3845 31.1644 59.4059 31.1445C59.8659 30.7156 60.3169 30.399 60.7497 30.1958L61.1574 28.1646C61.0426 28.2801 60.9241 28.3352 60.8109 28.3149C60.4517 28.2525 60.2861 27.4467 60.4409 26.5146C60.5953 25.5808 61.0155 24.8757 61.3748 24.9379C61.7362 25.0002 61.9013 25.8076 61.7451 26.74C61.677 27.1503 61.5581 27.5164 61.4145 27.7928L60.9512 30.1116C61.7613 29.7984 62.4993 29.9083 63.0925 30.4869C63.0925 30.4869 64.3408 33.0104 63.087 34.8071C63.087 34.8071 61.8062 35.0469 61.4145 35.1732C61.912 36.1733 66.8165 42.7625 66.6515 49.8829C72.1251 48.8135 74.0421 52.5053 74.1442 55.0858C74.1442 55.1208 74.1316 55.1499 74.105 55.1719C74.0779 55.1937 74.049 55.2012 74.015 55.1922C73.5211 55.0695 73.0215 54.9759 72.5168 54.9118C72.2365 54.7434 71.9417 54.5969 71.6381 54.4762C71.3326 54.3535 71.0219 54.258 70.7024 54.1866C70.3824 54.1152 70.0591 54.0695 69.7323 54.0492C69.4071 54.0293 69.0802 54.0363 68.755 54.0695C68.4296 54.1024 68.1082 54.1609 67.7918 54.247C67.4757 54.3312 67.1687 54.4409 66.8684 54.575C66.5684 54.7087 66.2812 54.8661 66.0064 55.0476C65.7331 55.2269 65.4728 55.4284 65.2302 55.6517C65.2088 55.6701 65.1888 55.6884 65.1692 55.7085C64.4234 56.408 63.8809 57.2431 63.5399 58.2138L63.538 58.2157ZM23.1619 56.6865C23.1619 56.7964 23.1404 56.9025 23.099 57.0052C23.0576 57.1059 22.9985 57.1957 22.923 57.2743C22.8457 57.3512 22.7578 57.4117 22.659 57.4539C22.5583 57.496 22.4542 57.5162 22.3463 57.5162H9.97035C9.86071 57.5162 9.7583 57.496 9.65777 57.4539C9.5571 57.4117 9.46901 57.3512 9.39191 57.2743C9.31641 57.1957 9.2571 57.1059 9.21574 57.0052C9.17451 56.9025 9.15296 56.7964 9.15296 56.6865C9.15296 56.5765 9.17451 56.4703 9.21574 56.3696C9.2571 56.267 9.31641 56.1774 9.39191 56.1004C9.46901 56.0216 9.5571 55.9631 9.65589 55.9209C9.75656 55.8789 9.86071 55.8568 9.96847 55.8568H22.3463C22.4542 55.8568 22.5583 55.8789 22.659 55.9209C22.7578 55.9631 22.8457 56.0216 22.923 56.1004C22.9985 56.1774 23.0576 56.267 23.099 56.3696C23.1404 56.4703 23.1619 56.5765 23.1619 56.6865ZM23.1619 51.2785C23.1619 51.3884 23.1404 51.4929 23.099 51.5952C23.0576 51.696 22.9985 51.7874 22.923 51.8643C22.8457 51.9413 22.7578 52.0018 22.659 52.0439C22.5583 52.0863 22.4542 52.1082 22.3463 52.1082H6.8158C6.70615 52.1082 6.60187 52.0863 6.50307 52.0439C6.40255 52.0018 6.31446 51.9432 6.23895 51.8643C6.16171 51.7874 6.10255 51.6979 6.06118 51.5952C6.01982 51.4929 6 51.3884 6 51.2785C6 51.1667 6.01982 51.0622 6.06118 50.9599C6.10255 50.8572 6.16171 50.7674 6.23722 50.6903C6.31446 50.6119 6.40255 50.5529 6.50307 50.511C6.60187 50.4691 6.70615 50.4469 6.8158 50.4469H22.3463C22.4542 50.4469 22.5583 50.4691 22.659 50.511C22.7578 50.5529 22.8457 50.6119 22.923 50.6903C22.9985 50.7674 23.0576 50.8592 23.099 50.9599C23.1404 51.0622 23.1619 51.1667 23.1619 51.2785ZM23.1619 45.8685C23.1619 45.9783 23.1404 46.0848 23.099 46.1855C23.0576 46.2878 22.9985 46.3776 22.923 46.4547C22.8457 46.5336 22.7578 46.5936 22.659 46.6358C22.5583 46.6781 22.4542 46.6982 22.3463 46.6982H16.1412C16.0334 46.6982 15.9293 46.6781 15.8287 46.6358C15.7281 46.5936 15.64 46.5336 15.5645 46.4565C15.4872 46.3776 15.4281 46.2878 15.3867 46.1855C15.3453 46.0848 15.3257 45.9783 15.3257 45.8685C15.3257 45.7586 15.3453 45.6526 15.3867 45.5517C15.4281 45.4491 15.4872 45.3592 15.5627 45.2807C15.64 45.2037 15.7281 45.1433 15.8287 45.101C15.9275 45.0591 16.0317 45.0392 16.1394 45.0392H22.3463C22.4542 45.0392 22.5583 45.0591 22.659 45.101C22.7578 45.1433 22.8457 45.2037 22.923 45.2807C22.9985 45.3592 23.0576 45.4491 23.099 45.5517C23.1404 45.6526 23.1619 45.7586 23.1619 45.8685Z" stroke="white" stroke-width="3" mask="url(#path-1-outside-1_762_84)"/>
</svg>
