<svg width="80" height="80" viewBox="0 0 80 80" fill="none" xmlns="http://www.w3.org/2000/svg">
<path d="M28.7893 38.4996C28.7893 38.9359 28.9565 39.3453 29.2589 39.6527L29.8245 40.2293C30.5805 40.9991 31.5837 41.4232 32.6524 41.4232C33.7213 41.4232 34.7252 40.9992 35.4812 40.2293L39.466 36.1671C41.0444 37.5111 43.0148 38.2426 45.0948 38.2426H45.0988C47.45 38.241 49.6628 37.3055 51.3276 35.6077C51.6404 35.2888 51.6404 34.7726 51.3276 34.4545C51.0148 34.1356 50.5092 34.1356 50.1964 34.4545C48.8332 35.8442 47.0221 36.6108 45.0981 36.6116H45.0956C43.1732 36.6116 41.3661 35.8483 40.0068 34.4627C39.694 34.1447 39.1877 34.1447 38.8757 34.4627L34.3493 39.0762C33.4437 40.0001 31.8621 40.0001 30.9558 39.0762L30.3902 38.4996L40.0068 28.6962C40.9036 27.782 41.7556 27.782 42.8348 27.782C43.99 27.782 45.4292 27.782 46.7947 26.3899L49.0571 24.0828C49.3698 23.7639 49.3698 23.2477 49.0571 22.9296C48.7451 22.6107 48.2387 22.6107 47.9259 22.9296L45.6636 25.2368C44.766 26.151 43.914 26.151 42.8348 26.151C41.6796 26.151 40.2412 26.151 38.8757 27.543L29.2596 37.3456C28.9565 37.6539 28.7893 38.0633 28.7893 38.4996Z" fill="white"/>
<path d="M23.1993 24.9711C24.0816 24.9711 24.7993 24.2397 24.7993 23.3401C24.7993 22.4406 24.0817 21.709 23.1993 21.709C22.3169 21.709 21.5992 22.4405 21.5992 23.3401C21.5992 24.2397 22.3169 24.9711 23.1993 24.9711Z" fill="white"/>
<path d="M30.956 27.5426L33.2184 29.8489C33.3751 30.0088 33.58 30.0878 33.784 30.0878C33.9888 30.0878 34.1936 30.0087 34.3496 29.8489C34.6624 29.5309 34.6624 29.0146 34.3496 28.6958L32.0872 26.3895C31.7752 26.0707 31.2688 26.0707 30.956 26.3895C30.644 26.7076 30.644 27.2237 30.956 27.5426Z" fill="white"/>
<path d="M56.7998 21.7104C57.6815 21.7104 58.3999 20.9789 58.3999 20.0793C58.3999 19.1798 57.6815 18.4482 56.7998 18.4482C55.9182 18.4482 55.1998 19.1797 55.1998 20.0793C55.1998 20.9788 55.9182 21.7104 56.7998 21.7104Z" fill="white"/>
<path d="M58.6341 33.3642C57.3341 34.6894 56.8877 36.8481 56.4565 38.9359C56.0741 40.7888 55.6781 42.7061 54.7149 43.688L53.5829 44.8411C53.2709 45.16 53.2709 45.6762 53.5829 45.9942C53.7396 46.1541 53.9445 46.2332 54.1493 46.2332C54.3533 46.2332 54.5581 46.154 54.7149 45.9942L55.8461 44.8411C57.1452 43.5167 57.5908 41.3588 58.0221 39.2719C58.4052 37.4174 58.8021 35.5001 59.7652 34.5174C60.0781 34.1994 60.0781 33.6831 59.7652 33.3643C59.4525 33.0453 58.9469 33.0453 58.6341 33.3642Z" fill="white"/>
<path d="M63.7653 33.3651L50.731 20.0778L53.3653 17.3923C53.6781 17.0733 53.6781 16.5579 53.3653 16.2391C53.0525 15.9203 52.5469 15.9203 52.2341 16.2391L49.0342 19.5012C48.7214 19.8201 48.7214 20.3355 49.0342 20.6543L62.6341 34.5183C62.7901 34.6773 62.9949 34.7572 63.1997 34.7572C63.4044 34.7572 63.6093 34.6773 63.7653 34.5183C64.078 34.1994 64.078 33.684 63.7653 33.3651Z" fill="white"/>
<path d="M45.6639 40.2272C45.3511 39.9092 44.8455 39.9092 44.5327 40.2272C44.22 40.5462 44.22 41.0623 44.5327 41.3812L53.0175 50.0307C53.6415 50.6669 53.6415 51.7018 53.0175 52.3379C52.3951 52.9724 51.3791 52.9731 50.7543 52.3379L42.2695 43.6876C41.9567 43.3687 41.4504 43.3687 41.1384 43.6876C40.8255 44.0065 40.8255 44.5227 41.1384 44.8408L51.8862 55.7973C52.5102 56.4334 52.5102 57.4683 51.8862 58.1036C51.2622 58.7388 50.2479 58.7406 49.623 58.1044L39.4416 47.7244C39.1288 47.4055 38.6224 47.4055 38.3104 47.7244C37.9976 48.0424 37.9976 48.5587 38.3104 48.8775L47.3608 58.1036C47.9848 58.7397 47.9848 59.7746 47.3608 60.4107C46.756 61.0272 45.7032 61.0272 45.0984 60.41L43.9664 59.2568L36.6128 51.7613C36.3 51.4425 35.7936 51.4425 35.4816 51.7613C35.1689 52.0794 35.1689 52.5956 35.4816 52.9145L42.8351 60.4107C43.1376 60.719 43.304 61.1284 43.304 61.5647C43.304 62.0002 43.1376 62.4097 42.8351 62.7179C42.2127 63.3524 41.1968 63.354 40.5728 62.717L26.9658 48.8588C24.8914 46.7441 24.441 44.0782 24.0434 41.7254C23.709 39.7461 23.393 37.8769 22.1658 36.6259C21.853 36.307 21.3474 36.307 21.0346 36.6259C20.7219 36.9448 20.7218 37.4602 21.0346 37.779C21.9027 38.6639 22.1642 40.2109 22.4667 42.0026C22.8826 44.4656 23.4011 47.531 25.8346 50.0119L39.4416 63.871C40.0648 64.5063 40.884 64.8252 41.704 64.8252C42.5231 64.8243 43.3432 64.5063 43.9663 63.871C44.4207 63.407 44.7223 62.8287 44.8439 62.1992C46.0167 62.7758 47.5439 62.532 48.4919 61.564C48.947 61.1 49.2478 60.5209 49.3694 59.8913C50.559 60.4736 52.0326 60.2608 53.0174 59.2568C54.2654 57.9855 54.2654 55.9164 53.0174 54.6442L52.7142 54.3342C53.2398 54.1916 53.7374 53.9102 54.1494 53.491C55.3966 52.2188 55.3966 50.149 54.1494 48.8776L45.6639 40.2272Z" fill="white"/>
<path d="M30.9654 22.7632L26.1654 17.87C25.8527 17.5511 25.347 17.5511 25.0343 17.87C24.7214 18.1889 24.7214 18.7044 25.0343 19.0232L29.2686 23.3398L16.2343 36.6272C15.9216 36.9461 15.9216 37.4615 16.2343 37.7803C16.3903 37.9393 16.5952 38.0192 16.7999 38.0192C17.0047 38.0192 17.2095 37.9393 17.3655 37.7803L30.9654 23.9164C31.2782 23.5975 31.2782 23.0821 30.9654 22.7632Z" fill="white"/>
<path d="M35.6757 63.1488C35.2301 63.3869 34.4693 63.4154 33.7837 62.7181C33.0981 62.0184 33.1038 61.2054 33.3261 60.8514C33.5469 60.5007 33.4733 60.0375 33.1541 59.7757C32.8365 59.514 32.3765 59.5384 32.087 59.8344C31.4621 60.4705 30.4462 60.4697 29.8238 59.8344C29.2006 59.1983 29.2006 58.1634 29.8238 57.5273C29.9806 57.3683 30.0581 57.1594 30.0581 56.9507C30.0581 56.742 29.9805 56.5339 29.8238 56.3741C29.5118 56.0561 29.0053 56.0561 28.6926 56.3741L28.127 56.9507C27.5038 57.5868 26.4878 57.5868 25.8646 56.9507C25.2415 56.3146 25.2415 55.2797 25.8646 54.6444L26.4302 54.0679C26.715 53.7784 26.7438 53.3184 26.499 52.9939C26.2543 52.6693 25.8103 52.5804 25.4639 52.785C25.0287 53.0411 24.263 53.011 23.6023 52.3381C22.8999 51.6221 22.9031 50.8286 23.1295 50.4942C23.3807 50.124 23.2887 49.6159 22.9255 49.3598C22.5615 49.1029 22.064 49.1967 21.8127 49.5678C21.1656 50.5236 21.1831 52.1783 22.4711 53.4913C22.9783 54.0076 23.5303 54.3158 24.0743 54.4634C23.8919 54.8777 23.7959 55.3303 23.7959 55.7977C23.7959 56.6687 24.1287 57.4883 24.7335 58.1039C25.5542 58.9415 26.715 59.2277 27.7686 58.9627C27.831 59.7016 28.139 60.4233 28.6926 60.9877C29.4886 61.7983 30.6006 62.0919 31.6262 61.87C31.7254 62.5453 32.0462 63.2524 32.6525 63.8714C33.3925 64.6249 34.2565 64.9266 35.0453 64.9266C35.5517 64.9266 36.0268 64.8018 36.4181 64.5931C36.8093 64.3843 36.9605 63.8917 36.7549 63.4921C36.5501 63.0941 36.0653 62.9392 35.6757 63.1488Z" fill="white"/>
</svg>
