<svg width="80" height="80" viewBox="0 0 80 80" fill="none" xmlns="http://www.w3.org/2000/svg">
<path d="M17.525 44.5828C16.1758 44.5828 15.0823 44.1513 14.2444 43.2883C13.4148 42.4166 13 41.23 13 39.7284C13 38.2095 13.4148 37.0229 14.2444 36.1685C15.0739 35.3055 16.2219 34.874 17.6884 34.874C18.2917 34.874 18.8405 34.9172 19.3349 35.0035C19.536 35.038 19.7036 35.1416 19.8377 35.3142C19.9718 35.4781 20.0388 35.668 20.0388 35.8837V35.9355C20.0388 36.1167 19.9676 36.2635 19.8251 36.3756C19.6827 36.4878 19.5235 36.5224 19.3475 36.4792C18.8531 36.367 18.3629 36.3109 17.8769 36.3109C16.863 36.3109 16.092 36.6 15.5641 37.1782C15.0446 37.7478 14.7848 38.5979 14.7848 39.7284C14.7848 40.8244 15.0404 41.6701 15.5516 42.2656C16.0711 42.8524 16.7708 43.1459 17.6506 43.1459C18.011 43.1459 18.3671 43.0941 18.719 42.9905C18.7861 42.9733 18.8196 42.9258 18.8196 42.8481V40.285C18.8196 40.2074 18.7861 40.1685 18.719 40.1685H17.1479C16.9635 40.1685 16.8043 40.1038 16.6702 39.9743C16.5445 39.8363 16.4817 39.6723 16.4817 39.4824C16.4817 39.2839 16.5445 39.12 16.6702 38.9905C16.8043 38.8524 16.9635 38.7834 17.1479 38.7834H19.7874C19.9802 38.7834 20.1477 38.8568 20.2902 39.0035C20.4327 39.1502 20.5039 39.3228 20.5039 39.5213V43.2883C20.5039 43.5126 20.441 43.7154 20.3153 43.8967C20.1896 44.0779 20.0262 44.1987 19.8251 44.2591C19.1129 44.4749 18.3461 44.5828 17.525 44.5828Z" fill="white"/>
<path d="M23.1444 44.4533C22.9517 44.4533 22.7841 44.38 22.6416 44.2332C22.4992 44.0865 22.428 43.9139 22.428 43.7154V35.7413C22.428 35.5428 22.4992 35.3702 22.6416 35.2235C22.7841 35.0768 22.9517 35.0035 23.1444 35.0035H27.418C27.6107 35.0035 27.7783 35.0768 27.9207 35.2235C28.0632 35.3702 28.1344 35.5428 28.1344 35.7413C28.1344 35.9398 28.0632 36.1124 27.9207 36.2591C27.7783 36.3972 27.6107 36.4663 27.418 36.4663H24.3008C24.2254 36.4663 24.1877 36.5051 24.1877 36.5828V38.6669C24.1877 38.7446 24.2254 38.7834 24.3008 38.7834H27.2043C27.397 38.7834 27.5562 38.8524 27.6819 38.9905C27.816 39.1286 27.883 39.2926 27.883 39.4824C27.883 39.6723 27.816 39.8363 27.6819 39.9743C27.5562 40.1038 27.397 40.1685 27.2043 40.1685H24.3008C24.2254 40.1685 24.1877 40.2074 24.1877 40.285V42.874C24.1877 42.9517 24.2254 42.9905 24.3008 42.9905H27.418C27.6107 42.9905 27.7783 43.0639 27.9207 43.2106C28.0632 43.3487 28.1344 43.517 28.1344 43.7154C28.1344 43.9139 28.0632 44.0865 27.9207 44.2332C27.7783 44.38 27.6107 44.4533 27.418 44.4533H23.1444Z" fill="white"/>
<path d="M30.6931 44.4533C30.5003 44.4533 30.3327 44.38 30.1903 44.2332C30.0562 44.0865 29.9892 43.9139 29.9892 43.7154V35.7413C29.9892 35.5428 30.0562 35.3702 30.1903 35.2235C30.3327 35.0768 30.5003 35.0035 30.6931 35.0035H30.9696C31.4472 35.0035 31.7992 35.2192 32.0254 35.6507L35.13 41.4242C35.13 41.4328 35.1342 41.4371 35.1426 41.4371C35.151 41.4371 35.1552 41.4328 35.1552 41.4242V35.7413C35.1552 35.5428 35.2264 35.3702 35.3688 35.2235C35.5113 35.0768 35.6789 35.0035 35.8716 35.0035H36.1481C36.3409 35.0035 36.5043 35.0768 36.6383 35.2235C36.7808 35.3702 36.852 35.5428 36.852 35.7413V43.7154C36.852 43.9139 36.7808 44.0865 36.6383 44.2332C36.5043 44.38 36.3409 44.4533 36.1481 44.4533H35.8716C35.394 44.4533 35.042 44.2376 34.8158 43.8061L31.7112 38.0326C31.7112 38.024 31.707 38.0197 31.6986 38.0197C31.6902 38.0197 31.686 38.024 31.686 38.0326V43.7154C31.686 43.9139 31.6148 44.0865 31.4724 44.2332C31.3299 44.38 31.1623 44.4533 30.9696 44.4533H30.6931Z" fill="white"/>
<path d="M45.501 41.0876C45.501 43.4177 44.3697 44.5828 42.1073 44.5828C39.8448 44.5828 38.7136 43.4177 38.7136 41.0876V35.7413C38.7136 35.5428 38.7848 35.3702 38.9272 35.2235C39.0697 35.0768 39.2373 35.0035 39.43 35.0035H39.782C39.9747 35.0035 40.1423 35.0768 40.2847 35.2235C40.4272 35.3702 40.4984 35.5428 40.4984 35.7413V41.1912C40.4984 41.8643 40.6283 42.3519 40.8881 42.654C41.1562 42.9474 41.571 43.0941 42.1324 43.0941C42.6938 43.0941 43.1044 42.9474 43.3642 42.654C43.6323 42.3519 43.7664 41.8643 43.7664 41.1912V35.7413C43.7664 35.5428 43.8376 35.3702 43.9801 35.2235C44.1226 35.0768 44.2901 35.0035 44.4829 35.0035H44.7845C44.9773 35.0035 45.1449 35.0768 45.2873 35.2235C45.4298 35.3702 45.501 35.5428 45.501 35.7413V41.0876Z" fill="white"/>
<path d="M48.3257 44.4533C48.133 44.4533 47.9654 44.38 47.823 44.2332C47.6805 44.0865 47.6093 43.9139 47.6093 43.7154V35.7413C47.6093 35.5428 47.6805 35.3702 47.823 35.2235C47.9654 35.0768 48.133 35.0035 48.3257 35.0035H48.8285C49.0212 35.0035 49.1888 35.0768 49.3313 35.2235C49.4737 35.3702 49.545 35.5428 49.545 35.7413V43.7154C49.545 43.9139 49.4737 44.0865 49.3313 44.2332C49.1888 44.38 49.0212 44.4533 48.8285 44.4533H48.3257Z" fill="white"/>
<path d="M52.4807 44.4533C52.288 44.4533 52.1204 44.38 51.9779 44.2332C51.8438 44.0865 51.7768 43.9139 51.7768 43.7154V35.7413C51.7768 35.5428 51.8438 35.3702 51.9779 35.2235C52.1204 35.0768 52.288 35.0035 52.4807 35.0035H52.7572C53.2348 35.0035 53.5868 35.2192 53.813 35.6507L56.9176 41.4242C56.9176 41.4328 56.9218 41.4371 56.9302 41.4371C56.9386 41.4371 56.9428 41.4328 56.9428 41.4242V35.7413C56.9428 35.5428 57.014 35.3702 57.1565 35.2235C57.2989 35.0768 57.4665 35.0035 57.6592 35.0035H57.9358C58.1285 35.0035 58.2919 35.0768 58.426 35.2235C58.5684 35.3702 58.6396 35.5428 58.6396 35.7413V43.7154C58.6396 43.9139 58.5684 44.0865 58.426 44.2332C58.2919 44.38 58.1285 44.4533 57.9358 44.4533H57.6592C57.1816 44.4533 56.8297 44.2376 56.6034 43.8061L53.4988 38.0326C53.4988 38.024 53.4946 38.0197 53.4862 38.0197C53.4778 38.0197 53.4737 38.024 53.4737 38.0326V43.7154C53.4737 43.9139 53.4024 44.0865 53.26 44.2332C53.1175 44.38 52.9499 44.4533 52.7572 44.4533H52.4807Z" fill="white"/>
<path d="M61.3433 44.4533C61.1506 44.4533 60.983 44.38 60.8405 44.2332C60.6981 44.0865 60.6269 43.9139 60.6269 43.7154V35.7413C60.6269 35.5428 60.6981 35.3702 60.8405 35.2235C60.983 35.0768 61.1506 35.0035 61.3433 35.0035H65.6169C65.8096 35.0035 65.9772 35.0768 66.1197 35.2235C66.2621 35.3702 66.3333 35.5428 66.3333 35.7413C66.3333 35.9398 66.2621 36.1124 66.1197 36.2591C65.9772 36.3972 65.8096 36.4663 65.6169 36.4663H62.4997C62.4243 36.4663 62.3866 36.5051 62.3866 36.5828V38.6669C62.3866 38.7446 62.4243 38.7834 62.4997 38.7834H65.4032C65.5959 38.7834 65.7551 38.8524 65.8808 38.9905C66.0149 39.1286 66.0819 39.2926 66.0819 39.4824C66.0819 39.6723 66.0149 39.8363 65.8808 39.9743C65.7551 40.1038 65.5959 40.1685 65.4032 40.1685H62.4997C62.4243 40.1685 62.3866 40.2074 62.3866 40.285V42.874C62.3866 42.9517 62.4243 42.9905 62.4997 42.9905H65.6169C65.8096 42.9905 65.9772 43.0639 66.1197 43.2106C66.2621 43.3487 66.3333 43.517 66.3333 43.7154C66.3333 43.9139 66.2621 44.0865 66.1197 44.2332C65.9772 44.38 65.8096 44.4533 65.6169 44.4533H61.3433Z" fill="white"/>
<path d="M28.7141 14H50.6188C51.525 21.8279 57.5476 24.6612 62.5236 25.6505V30.9903H65.3807H13.9521H16.8093V25.6505C23.9262 23.8741 26.4037 21.2069 28.7141 14Z" stroke="white" stroke-width="2" stroke-linejoin="round"/>
<path d="M20.1426 48.4648C24.4455 57.7229 28.4017 61.7819 39.6664 65.9406C50.297 62.0319 54.531 58.2433 59.1902 48.4648H64.9045H39.6664H13.9521H20.1426Z" stroke="white" stroke-width="2" stroke-linejoin="round"/>
</svg>
