<svg width="80" height="80" viewBox="0 0 80 80" fill="none" xmlns="http://www.w3.org/2000/svg">
<path fill-rule="evenodd" clip-rule="evenodd" d="M43.3269 14.8095L43.4188 14.9278C44.7167 16.6057 46.8581 17.1907 48.8052 16.3992L48.9428 16.3434C50.3141 15.786 51.7216 15.8899 53.0002 16.642C54.2781 17.3946 55.0703 18.5855 55.2824 20.0746L55.3035 20.2241C55.6051 22.3387 57.1727 23.9367 59.247 24.2442L59.3936 24.2657C60.8544 24.4819 62.0226 25.2894 62.7609 26.5922C63.4986 27.8956 63.6001 29.3305 63.0538 30.7284L62.9991 30.8687C62.2226 32.8535 62.7965 35.0366 64.4424 36.3596L64.5584 36.4533C65.7176 37.385 66.3335 38.6799 66.3335 40.1845C66.3335 41.6892 65.7176 42.9841 64.5584 43.9158L64.4424 44.0095C62.7965 45.3325 62.2226 47.5156 62.9991 49.5004L63.0538 49.6407C63.6006 51.0383 63.4986 52.4737 62.7609 53.7767C62.0226 55.0798 60.8544 55.8872 59.3936 56.1034L59.247 56.1251C57.1727 56.4322 55.6051 58.0304 55.3035 60.145L55.2824 60.2944C55.0703 61.7834 54.2781 62.9747 53.0002 63.7269C51.7216 64.4792 50.3141 64.583 48.9428 64.0257L48.8052 63.9698C46.8581 63.1784 44.7167 63.7632 43.4188 65.4411L43.3269 65.5597C42.4129 66.7411 41.1428 67.3689 39.6667 67.3689C38.1907 67.3689 36.9206 66.7411 36.0066 65.5597L35.9147 65.4411C34.6168 63.7632 32.4754 63.1784 30.5283 63.9698L30.3907 64.0257C29.0194 64.583 27.6119 64.4792 26.3333 63.7269C25.0554 62.9747 24.2632 61.7834 24.0511 60.2944L24.0295 60.145C23.7284 58.0304 22.1608 56.4322 20.0865 56.1251L19.9399 56.1034C18.4791 55.8872 17.3109 55.0798 16.5726 53.7767C15.8349 52.4737 15.7329 51.0384 16.2797 49.6407L16.3344 49.5004C17.1109 47.5156 16.537 45.3325 14.8911 44.0095L14.7751 43.9158C13.6161 42.9841 13 41.6892 13 40.1845C13 38.6799 13.6161 37.385 14.7751 36.4533L14.8911 36.3596C16.537 35.0366 17.1109 32.8535 16.3344 30.8687L16.2797 30.7284C15.7329 29.3305 15.8349 27.8956 16.5726 26.5922C17.3109 25.2894 18.4791 24.4819 19.9399 24.2657L20.0865 24.2442C22.1608 23.9367 23.7284 22.3387 24.0295 20.2241L24.0511 20.0746C24.2632 18.5855 25.0554 17.3946 26.3333 16.642C27.6119 15.8899 29.0194 15.7865 30.3907 16.3434L30.5283 16.3992C32.4754 17.1907 34.6168 16.6057 35.9147 14.9278L36.0066 14.8095C36.9206 13.6279 38.1907 13 39.6667 13C41.1428 13 42.4129 13.6279 43.3269 14.8095Z" stroke="white" stroke-width="2"/>
<path fill-rule="evenodd" clip-rule="evenodd" d="M37.1222 52.3995L54.0632 35.1294C54.92 34.2562 54.92 32.8308 54.0632 31.9575C53.2068 31.0845 51.8083 31.0845 50.9519 31.9575L35.5706 47.6375L28.3993 40.3272C27.5429 39.454 26.1444 39.454 25.288 40.3272C24.4313 41.2003 24.4313 42.6259 25.288 43.4989L34.0147 52.3955C34.0281 52.4089 34.0414 52.4223 34.0552 52.4357C34.0688 52.4487 34.0825 52.4616 34.0965 52.4745C34.1102 52.4872 34.1242 52.4998 34.1385 52.5123C34.1525 52.5247 34.1668 52.5366 34.1815 52.5489C34.1958 52.5604 34.2101 52.5725 34.2248 52.5838C34.2395 52.5953 34.2541 52.6066 34.2691 52.6179C34.2837 52.6289 34.2987 52.6398 34.314 52.6504C34.329 52.6611 34.344 52.6717 34.3593 52.6819C34.3746 52.6923 34.3902 52.7023 34.4055 52.7119C34.4211 52.7219 34.4365 52.7315 34.4524 52.7408C34.468 52.7504 34.4837 52.7596 34.4996 52.7687C34.5156 52.7776 34.5313 52.7862 34.5472 52.7949C34.5634 52.8032 34.5793 52.8115 34.5956 52.8198C34.6119 52.8278 34.6282 52.8357 34.6445 52.8435C34.6607 52.8511 34.677 52.8585 34.6937 52.8658C34.71 52.8731 34.7266 52.8801 34.7432 52.8869C34.7598 52.8938 34.7764 52.9003 34.793 52.9068C34.8096 52.9131 34.8266 52.9193 34.8431 52.9253C34.86 52.9313 34.877 52.937 34.8939 52.9426C34.9109 52.948 34.9278 52.9534 34.9448 52.9585C34.9617 52.9636 34.979 52.9685 34.9959 52.9732C35.0131 52.9778 35.0301 52.9824 35.0473 52.9866C35.0646 52.9908 35.0819 52.9949 35.099 52.9987C35.1163 53.0026 35.1336 53.0061 35.1508 53.0096C35.1681 53.013 35.1857 53.0161 35.203 53.0192C35.2205 53.022 35.2378 53.0249 35.2554 53.0275C35.2727 53.0299 35.2902 53.0323 35.3075 53.0345C35.3251 53.0366 35.3424 53.0384 35.3599 53.0402C35.3775 53.0419 35.395 53.0433 35.4127 53.0446C35.4299 53.0459 35.4474 53.0469 35.4651 53.0478C35.4827 53.0486 35.5002 53.0493 35.5175 53.0497C35.5351 53.0502 35.553 53.0503 35.5706 53.0503C35.5881 53.0503 35.6058 53.0502 35.6233 53.0497C35.6409 53.0493 35.6582 53.0486 35.6757 53.0478C35.7108 53.0462 35.7457 53.0436 35.7809 53.0402C35.7982 53.0385 35.8158 53.0366 35.8333 53.0345C35.8506 53.0323 35.8682 53.0299 35.8857 53.0275C35.903 53.0249 35.9206 53.022 35.9379 53.0192C35.9554 53.0161 35.9727 53.013 35.9899 53.0096C36.0072 53.0061 36.0245 53.0026 36.0417 52.9987C36.059 52.9949 36.0763 52.9908 36.0934 52.9866C36.128 52.9781 36.1623 52.9686 36.1961 52.9585C36.213 52.9534 36.2303 52.948 36.2468 52.9426C36.2638 52.937 36.2807 52.9313 36.2977 52.9253C36.3146 52.9193 36.3312 52.9131 36.3478 52.9068C36.3647 52.9004 36.3814 52.8937 36.3979 52.8869C36.4146 52.8801 36.4311 52.8731 36.4474 52.8658C36.4641 52.8585 36.4804 52.8511 36.4963 52.8435C36.5129 52.8357 36.5292 52.8278 36.5455 52.8198C36.5614 52.8115 36.5777 52.8032 36.5937 52.7949C36.6096 52.7862 36.6256 52.7772 36.6411 52.7683C36.6572 52.7593 36.6728 52.7504 36.6885 52.7408C36.7044 52.7315 36.72 52.7219 36.7353 52.7121C36.7506 52.7023 36.7662 52.6923 36.7812 52.6819C36.7966 52.6717 36.8118 52.6611 36.8271 52.6504C36.8421 52.6398 36.8571 52.6289 36.8717 52.6179C36.8867 52.6066 36.9016 52.5953 36.916 52.5838C36.9306 52.5725 36.9453 52.5604 36.9594 52.5489C36.974 52.537 36.9882 52.5247 37.0022 52.5123C37.0166 52.4998 37.0306 52.4872 37.0443 52.4745C37.0583 52.4616 37.0719 52.4487 37.0857 52.4357C37.097 52.4244 37.1084 52.4134 37.1195 52.4019L37.1222 52.3995Z" fill="white"/>
</svg>
